<svg width="386" height="367" viewBox="0 0 386 367" fill="none" xmlns="http://www.w3.org/2000/svg">
<path d="M193.865 352.694C295.565 352.694 378.01 306.644 378.01 249.839C378.01 193.033 295.565 146.984 193.865 146.984C92.1641 146.984 9.71948 193.033 9.71948 249.839C9.71948 306.644 92.1641 352.694 193.865 352.694Z" fill="#F5F5F5"/>
<path d="M80.9596 309.183L24.704 278.311C22.7431 277.232 22.7431 275.485 24.704 274.406L126.376 218.585C127.477 218.053 128.693 217.776 129.928 217.776C131.162 217.776 132.379 218.053 133.479 218.585L189.727 249.465C191.695 250.544 191.695 252.29 189.727 253.369L88.0698 309.153C86.9706 309.69 85.7539 309.972 84.5184 309.977C83.2829 309.982 82.0636 309.71 80.9596 309.183Z" fill="#E0E0E0"/>
<path d="M280.8 311.377C310.496 311.377 334.569 298.164 334.569 281.863C334.569 265.563 310.496 252.349 280.8 252.349C251.103 252.349 227.03 265.563 227.03 281.863C227.03 298.164 251.103 311.377 280.8 311.377Z" fill="#E0E0E0"/>
<path d="M77.3698 252.687C77.6169 244.055 75.0538 229.58 66.1449 215.135C56.5721 199.648 43.9422 189.313 33.3195 192.462C23.4379 195.398 25.5995 208.155 40.4759 222.057C50.9057 231.804 61.4666 244.18 66.2916 258.317L74.6601 276.527L77.3698 252.687Z" fill="#709EF9"/>
<path d="M77.3698 252.687C77.6169 244.055 75.0538 229.58 66.1449 215.135C56.5721 199.648 43.9422 189.313 33.3195 192.462C23.4379 195.398 25.5995 208.155 40.4759 222.057C50.9057 231.804 61.4666 244.18 66.2916 258.317L74.6601 276.527L77.3698 252.687Z" fill="#709EF9"/>
<g opacity="0.1">
<path opacity="0.1" d="M77.3698 252.687C77.6169 244.055 75.0538 229.58 66.1449 215.135C56.5721 199.648 43.9422 189.313 33.3195 192.462C23.4379 195.398 25.5995 208.155 40.4759 222.057C50.9057 231.804 61.4666 244.18 66.2916 258.317L74.6601 276.527L77.3698 252.687Z" fill="black"/>
</g>
<g opacity="0.2">
<path opacity="0.2" d="M77.3698 252.687C77.6169 244.055 75.0538 229.58 66.1449 215.135C56.5721 199.648 43.9422 189.313 33.3195 192.462C23.4379 195.398 25.5995 208.155 40.4759 222.057C50.9057 231.804 61.4666 244.18 66.2916 258.317L74.6601 276.527L77.3698 252.687Z" fill="black"/>
</g>
<path d="M75.7178 259.102C75.5863 259.089 75.4622 259.037 75.3627 258.955C75.2632 258.872 75.1931 258.762 75.1619 258.64C68.7929 233.992 52.6504 208.052 37.6119 198.305C37.4706 198.214 37.3729 198.074 37.3403 197.915C37.3078 197.756 37.343 197.591 37.4382 197.457C37.5334 197.323 37.6808 197.23 37.848 197.199C38.0152 197.168 38.1886 197.201 38.3298 197.292C53.6077 207.208 69.9741 233.449 76.428 258.368C76.4655 258.525 76.4373 258.689 76.3493 258.826C76.2614 258.963 76.1207 259.062 75.9571 259.102C75.8778 259.114 75.7971 259.114 75.7178 259.102Z" fill="white"/>
<path d="M74.9612 294.136C74.9612 294.136 67.496 298.885 55.9082 299.112C44.3205 299.34 37.3262 293.468 37.3262 293.468C37.3262 293.468 45.9958 283.999 52.8434 282.01C45.5801 282.497 38.6614 285.142 33.0648 289.57C33.0648 289.57 23.5228 285.9 22.2568 275.514C22.2568 275.514 28.8419 270.376 43.1008 268.908C40.3533 268.066 37.5532 267.387 34.7168 266.875C29.8189 266.268 24.8725 266.094 19.9408 266.354C15.965 259.528 18.8986 250.14 16.8914 242.565C25.3834 239.255 35.0642 240.018 44.0735 241.831C45.31 241.996 46.4947 242.411 47.5475 243.049C48.7758 244.055 49.6603 245.387 50.0874 246.874C50.9444 249.159 51.5624 251.519 51.9324 253.92C54.0465 251.175 55.7099 248.141 56.8655 244.921C60.2083 245.376 67.1254 246.69 71.1938 250.353C71.5798 255.601 70.7615 259.491 69.2561 264.849C74.7528 261.025 74.83 258.742 76.8063 255.153C79.019 256.97 80.8228 259.193 82.1096 261.689C83.3964 264.186 84.1396 266.903 84.2947 269.679C84.3448 271.305 84.2907 272.933 84.1326 274.553C84.1025 276.47 83.8958 278.38 83.515 280.263C83.0429 282.002 82.4153 283.698 81.639 285.335C80.119 288.699 77.8391 291.703 74.9612 294.136Z" fill="#709EF9"/>
<path opacity="0.4" d="M74.9612 294.136C74.9612 294.136 67.496 298.885 55.9082 299.112C44.3205 299.34 37.3262 293.468 37.3262 293.468C37.3262 293.468 45.9958 283.999 52.8434 282.01C45.5801 282.497 38.6614 285.142 33.0648 289.57C33.0648 289.57 23.5228 285.9 22.2568 275.514C22.2568 275.514 28.8419 270.376 43.1008 268.908C40.3533 268.066 37.5532 267.387 34.7168 266.875C29.8189 266.268 24.8725 266.094 19.9408 266.354C15.965 259.528 18.8986 250.14 16.8914 242.565C25.3834 239.255 35.0642 240.018 44.0735 241.831C45.31 241.996 46.4947 242.411 47.5475 243.049C48.7758 244.055 49.6603 245.387 50.0874 246.874C50.9444 249.159 51.5624 251.519 51.9324 253.92C54.0465 251.175 55.7099 248.141 56.8655 244.921C60.2083 245.376 67.1254 246.69 71.1938 250.353C71.5798 255.601 70.7615 259.491 69.2561 264.849C74.7528 261.025 74.83 258.742 76.8063 255.153C79.019 256.97 80.8228 259.193 82.1096 261.689C83.3964 264.186 84.1396 266.903 84.2947 269.679C84.3448 271.305 84.2907 272.933 84.1326 274.553C84.1025 276.47 83.8958 278.38 83.515 280.263C83.0429 282.002 82.4153 283.698 81.639 285.335C80.119 288.699 77.8391 291.703 74.9612 294.136Z" fill="black"/>
<path d="M74.884 294.745C74.7658 294.727 74.6552 294.678 74.564 294.604C74.4728 294.531 74.4046 294.435 74.3667 294.327C67.8279 275.059 36.863 249.619 25.0128 245.78C24.9324 245.754 24.8582 245.714 24.7944 245.661C24.7306 245.608 24.6785 245.543 24.6412 245.471C24.6038 245.398 24.582 245.32 24.5769 245.239C24.5717 245.159 24.5835 245.078 24.6113 245.002C24.6643 244.856 24.7739 244.736 24.9174 244.665C25.061 244.594 25.2277 244.578 25.3833 244.62C37.4343 248.525 68.9164 274.377 75.5633 293.952C75.6051 294.102 75.5852 294.261 75.5078 294.398C75.4303 294.534 75.3011 294.637 75.1465 294.686C75.0637 294.722 74.9746 294.742 74.884 294.745Z" fill="white"/>
<path d="M172.048 30.828L78.9216 81.9658C77.4478 82.7734 76.214 83.9239 75.3363 85.3093C74.4585 86.6947 73.9655 88.2694 73.9036 89.8857V295.736C73.9036 298.98 76.0034 302.768 78.605 304.192C81.2067 305.616 85.6997 305.461 88.641 303.839L181.42 252.907C182.975 251.94 184.269 250.639 185.198 249.109C186.127 247.579 186.666 245.863 186.77 244.099V38.9387C186.77 35.6945 184.662 31.9144 182.068 30.4831C179.475 29.0518 174.997 29.2206 172.048 30.828Z" fill="#709EF9"/>
<path opacity="0.15" d="M87.375 304.419C84.5186 305.476 80.8516 305.425 78.605 304.192C76.0111 302.768 73.9036 298.98 73.9036 295.736V89.8856C73.9592 88.3471 74.424 86.8471 75.2546 85.5256L83.8855 90.1792C82.3896 91.8408 81.513 93.9258 81.392 96.1099V299.861C81.392 303.766 83.9859 305.616 87.375 304.419Z" fill="black"/>
<path d="M86.1089 88.3369C84.7378 89.1913 83.5968 90.3397 82.7775 91.6897C81.9583 93.0397 81.4837 94.5537 81.392 96.1099V299.868C81.392 304.272 84.6575 306.041 88.6488 303.847L181.42 252.907C182.975 251.94 184.269 250.639 185.198 249.109C186.128 247.579 186.666 245.863 186.77 244.099V38.9387C186.77 35.7091 184.361 34.3879 181.42 36.0027L86.1089 88.3369Z" fill="#709EF9"/>
<path d="M90.9493 100.888C89.4685 101.806 88.2361 103.042 87.3521 104.497C86.4682 105.952 85.9576 107.585 85.8618 109.263V284.586C85.8618 287.669 88.1315 288.924 90.9416 287.383L178.239 239.453C179.716 238.534 180.945 237.298 181.827 235.844C182.71 234.391 183.221 232.761 183.319 231.085V55.784C183.319 52.7158 181.003 51.4607 178.239 52.9948L90.9493 100.888Z" fill="#37474F"/>
<path d="M177.475 238.961C178.952 238.042 180.181 236.806 181.063 235.352C181.945 233.899 182.456 232.269 182.555 230.593V55.2628C182.589 54.7625 182.518 54.2607 182.345 53.7868C182.173 53.313 181.903 52.8765 181.551 52.503C181 52.3322 180.415 52.2851 179.842 52.3654C179.269 52.4456 178.723 52.651 178.247 52.9654L90.9493 100.888C89.4685 101.806 88.2361 103.042 87.3521 104.497C86.4682 105.952 85.9576 107.585 85.8618 109.263V284.586C85.8253 285.088 85.8946 285.59 86.0656 286.066C86.2367 286.541 86.506 286.979 86.8577 287.354C87.41 287.524 87.9961 287.571 88.5705 287.49C89.1449 287.41 89.6921 287.205 90.1696 286.891L177.475 238.961Z" fill="#455A64"/>
<path d="M127.326 72.3724L142.82 63.858C143.739 63.3515 144.487 63.7112 144.487 64.658C144.447 65.192 144.275 65.7093 143.985 66.1684C143.696 66.6274 143.296 67.0152 142.82 67.3004L127.38 75.7928C126.454 76.2993 125.705 75.9396 125.705 74.9854C125.744 74.4604 125.911 73.9512 126.192 73.4978C126.474 73.0444 126.862 72.6592 127.326 72.3724Z" fill="#455A64"/>
<path d="M153.875 57.7731C154.74 57.3034 155.419 57.685 155.419 58.6392C155.392 59.1538 155.239 59.6551 154.971 60.1027C154.702 60.5503 154.327 60.9316 153.875 61.2156C153.003 61.6927 152.331 61.311 152.331 60.3568C152.356 59.8409 152.509 59.3378 152.777 58.8888C153.045 58.4398 153.422 58.0575 153.875 57.7731Z" fill="#455A64"/>
<path d="M160.151 54.316C161.016 53.8389 161.695 54.2206 161.695 55.1748C161.668 55.69 161.514 56.192 161.245 56.6406C160.977 57.0892 160.603 57.472 160.151 57.7584C159.279 58.2282 158.607 57.8465 158.607 56.8923C158.633 56.3777 158.787 55.8761 159.055 55.4284C159.323 54.9807 159.699 54.5996 160.151 54.316Z" fill="#455A64"/>
<path d="M109.971 81.8777C110.836 81.4006 111.515 81.7896 111.515 82.7365C111.489 83.252 111.335 83.7544 111.067 84.2032C110.799 84.6519 110.424 85.0346 109.971 85.3202C109.107 85.7973 108.427 85.4083 108.427 84.4614C108.454 83.9459 108.608 83.4435 108.876 82.9947C109.144 82.5459 109.519 82.1633 109.971 81.8777Z" fill="#455A64"/>
<path d="M116.248 78.4352C117.112 77.9655 117.792 78.3472 117.792 79.3014C117.765 79.8159 117.612 80.3172 117.343 80.7648C117.075 81.2124 116.7 81.5937 116.248 81.8777C115.383 82.3548 114.704 81.9731 114.704 81.0189C114.732 80.5036 114.886 80.0017 115.154 79.5531C115.422 79.1045 115.796 78.7217 116.248 78.4352Z" fill="#455A64"/>
<path d="M79.6781 120.684C79.6597 120.152 79.5105 119.631 79.2424 119.163C78.9743 118.695 78.5948 118.294 78.1341 117.99C77.98 117.886 77.7991 117.822 77.6103 117.807C77.4215 117.791 77.2318 117.824 77.0611 117.902C76.8604 118.02 76.0884 118.431 75.8799 118.548C75.7114 118.671 75.5789 118.832 75.4951 119.017C75.4113 119.202 75.379 119.405 75.4013 119.605V143.475C75.4185 144.008 75.5672 144.529 75.8354 144.997C76.1036 145.465 76.4838 145.866 76.9453 146.169C77.0937 146.269 77.2666 146.332 77.4475 146.351C77.6285 146.37 77.8117 146.345 77.9798 146.279C78.1959 146.169 78.9833 145.736 79.1918 145.618C79.364 145.497 79.4997 145.335 79.585 145.148C79.6704 144.961 79.7025 144.756 79.6781 144.554V120.684Z" fill="#709EF9"/>
<path opacity="0.4" d="M79.6781 120.684C79.6597 120.152 79.5105 119.631 79.2424 119.163C78.9743 118.695 78.5948 118.294 78.1341 117.99C77.98 117.886 77.7991 117.822 77.6103 117.807C77.4215 117.791 77.2318 117.824 77.0611 117.902C76.8604 118.02 76.0884 118.431 75.8799 118.548C75.7114 118.671 75.5789 118.832 75.4951 119.017C75.4113 119.202 75.379 119.405 75.4013 119.605V143.475C75.4185 144.008 75.5672 144.529 75.8354 144.997C76.1036 145.465 76.4838 145.866 76.9453 146.169C77.0937 146.269 77.2666 146.332 77.4475 146.351C77.6285 146.37 77.8117 146.345 77.9798 146.279C78.1959 146.169 78.9833 145.736 79.1918 145.618C79.364 145.497 79.4997 145.335 79.585 145.148C79.6704 144.961 79.7025 144.756 79.6781 144.554V120.684Z" fill="black"/>
<path d="M78.5124 121.323V145.2C78.5124 146.213 77.8099 146.668 76.9684 146.169C76.5069 145.866 76.1267 145.465 75.8585 144.997C75.5903 144.529 75.4416 144.008 75.4244 143.475V119.642C75.4244 118.629 76.1269 118.174 76.9684 118.666C77.4239 118.965 77.8003 119.361 78.0682 119.822C78.336 120.283 78.4881 120.797 78.5124 121.323Z" fill="#709EF9"/>
<path d="M79.6782 152.672C79.6603 152.138 79.5114 151.616 79.2433 151.147C78.9752 150.678 78.5954 150.275 78.1342 149.971C77.9803 149.865 77.7988 149.802 77.6095 149.787C77.4203 149.773 77.2305 149.809 77.0611 149.89L75.8799 150.529C75.7114 150.651 75.5789 150.813 75.4951 150.998C75.4113 151.183 75.379 151.385 75.4013 151.586V162.838C75.4185 163.372 75.5671 163.894 75.8353 164.363C76.1035 164.832 76.4836 165.235 76.9453 165.539C77.0935 165.64 77.2668 165.703 77.4482 165.721C77.6296 165.739 77.8128 165.712 77.9798 165.642C78.1959 165.532 78.9834 165.099 79.1918 164.981C79.3628 164.861 79.4977 164.7 79.583 164.514C79.6683 164.329 79.7011 164.125 79.6782 163.924V152.672Z" fill="#709EF9"/>
<path opacity="0.4" d="M79.6782 152.672C79.6603 152.138 79.5114 151.616 79.2433 151.147C78.9752 150.678 78.5954 150.275 78.1342 149.971C77.9803 149.865 77.7988 149.802 77.6095 149.787C77.4203 149.773 77.2305 149.809 77.0611 149.89L75.8799 150.529C75.7114 150.651 75.5789 150.813 75.4951 150.998C75.4113 151.183 75.379 151.385 75.4013 151.586V162.838C75.4185 163.372 75.5671 163.894 75.8353 164.363C76.1035 164.832 76.4836 165.235 76.9453 165.539C77.0935 165.64 77.2668 165.703 77.4482 165.721C77.6296 165.739 77.8128 165.712 77.9798 165.642C78.1959 165.532 78.9834 165.099 79.1918 164.981C79.3628 164.861 79.4977 164.7 79.583 164.514C79.6683 164.329 79.7011 164.125 79.6782 163.924V152.672Z" fill="black"/>
<path d="M78.5124 153.281V164.533C78.5124 165.546 77.8099 166.001 76.9684 165.51C76.5067 165.206 76.1266 164.803 75.8584 164.334C75.5903 163.865 75.4416 163.342 75.4244 162.809V151.556C75.4244 150.543 76.1269 150.088 76.9684 150.58C77.4296 150.885 77.8094 151.287 78.0775 151.756C78.3456 152.225 78.4946 152.748 78.5124 153.281Z" fill="#709EF9"/>
<path opacity="0.4" d="M186.778 38.513C186.577 35.577 184.261 34.4613 181.451 36.0027L86.1089 88.3369C85.2666 88.831 84.5155 89.4534 83.8855 90.1792L75.2546 85.5257C76.0157 84.1876 77.1171 83.052 78.4584 82.2227L172.04 30.828C174.997 29.2058 179.498 29.0517 182.076 30.4757C184.655 31.8996 186.608 35.3714 186.778 38.513Z" fill="white"/>
<path d="M94.2766 266.904C94.2645 266.91 94.2514 266.912 94.238 266.912C94.2247 266.912 94.2115 266.91 94.1994 266.904C94.1947 266.897 94.1922 266.888 94.1922 266.879C94.1922 266.87 94.1947 266.861 94.1994 266.853V266.479L92.9874 267.147C92.9874 267.147 92.9334 267.147 92.9102 267.147C92.9054 267.139 92.903 267.13 92.903 267.121C92.903 267.112 92.9054 267.103 92.9102 267.095V266.706C92.9097 266.641 92.9285 266.578 92.9642 266.523L94.1145 264.504L94.1763 264.416C94.2022 264.396 94.2307 264.378 94.2612 264.365L94.8402 264.042C94.8524 264.037 94.8655 264.034 94.8788 264.034C94.892 264.034 94.9052 264.037 94.9174 264.042C94.9216 264.051 94.9238 264.061 94.9238 264.071C94.9238 264.081 94.9216 264.091 94.9174 264.101V265.51L95.2494 265.326C95.2601 265.321 95.272 265.318 95.2841 265.318C95.2962 265.318 95.3081 265.321 95.3188 265.326C95.3243 265.335 95.3271 265.345 95.3271 265.356C95.3271 265.366 95.3243 265.376 95.3188 265.385V265.774C95.3272 265.8 95.3272 265.828 95.3188 265.855C95.3018 265.884 95.2781 265.909 95.2494 265.928L94.9174 266.112V266.442C94.9226 266.469 94.9226 266.496 94.9174 266.523C94.9 266.554 94.8731 266.58 94.8402 266.596L94.2766 266.904ZM94.1917 265.891V265.216L93.6282 266.2L94.1917 265.891Z" fill="white"/>
<path d="M96.5617 264.24C96.5718 264.269 96.5718 264.299 96.5617 264.328C96.5447 264.355 96.5208 264.378 96.4923 264.394L95.9828 264.673C95.9718 264.678 95.96 264.68 95.948 264.68C95.936 264.68 95.9242 264.678 95.9133 264.673C95.9085 264.665 95.906 264.656 95.906 264.647C95.906 264.638 95.9085 264.629 95.9133 264.622V264.137C95.9033 264.109 95.9033 264.078 95.9133 264.049C95.9303 264.022 95.9542 263.999 95.9828 263.983L96.4923 263.704C96.5032 263.699 96.515 263.697 96.527 263.697C96.539 263.697 96.5508 263.699 96.5617 263.704C96.5672 263.713 96.57 263.723 96.57 263.734C96.57 263.744 96.5672 263.754 96.5617 263.763V264.24ZM96.5617 265.524C96.5718 265.553 96.5718 265.584 96.5617 265.613C96.5447 265.64 96.5208 265.662 96.4923 265.679L95.9828 265.957C95.9718 265.962 95.96 265.965 95.948 265.965C95.936 265.965 95.9242 265.962 95.9133 265.957C95.9085 265.95 95.906 265.941 95.906 265.932C95.906 265.923 95.9085 265.914 95.9133 265.906V265.422C95.9033 265.393 95.9033 265.362 95.9133 265.334C95.9303 265.306 95.9542 265.284 95.9828 265.268L96.4923 264.989C96.5032 264.984 96.515 264.982 96.527 264.982C96.539 264.982 96.5508 264.984 96.5617 264.989C96.5672 264.998 96.57 265.008 96.57 265.018C96.57 265.028 96.5672 265.038 96.5617 265.047V265.524Z" fill="white"/>
<path d="M98.5149 264.578C98.5028 264.583 98.4896 264.586 98.4763 264.586C98.463 264.586 98.4498 264.583 98.4377 264.578C98.4377 264.578 98.4377 264.578 98.4377 264.526V264.152L97.2257 264.82C97.2134 264.825 97.2003 264.827 97.1871 264.827C97.1738 264.827 97.1607 264.825 97.1485 264.82C97.143 264.811 97.1402 264.801 97.1402 264.791C97.1402 264.78 97.143 264.77 97.1485 264.761V264.372C97.148 264.307 97.1667 264.244 97.2025 264.189L98.3528 262.17L98.4145 262.082C98.4405 262.062 98.469 262.044 98.4995 262.031L99.0785 261.708C99.0906 261.702 99.1037 261.7 99.1171 261.7C99.1304 261.7 99.1436 261.702 99.1557 261.708C99.1604 261.716 99.1629 261.724 99.1629 261.733C99.1629 261.742 99.1604 261.751 99.1557 261.759V263.168L99.4876 262.985C99.4985 262.98 99.5104 262.978 99.5224 262.978C99.5343 262.978 99.5462 262.98 99.5571 262.985C99.5625 262.994 99.5654 263.004 99.5654 263.014C99.5654 263.025 99.5625 263.035 99.5571 263.044V263.433C99.5655 263.459 99.5655 263.487 99.5571 263.513C99.5426 263.544 99.5183 263.57 99.4876 263.587L99.1557 263.77V264.145C99.1609 264.171 99.1609 264.199 99.1557 264.225C99.1383 264.257 99.1114 264.282 99.0785 264.299L98.5149 264.578ZM98.43 263.565V262.889L97.8664 263.873L98.43 263.565Z" fill="white"/>
<path d="M100.298 263.506V263.455L101.132 261.15L99.9817 261.781C99.9817 261.781 99.9277 261.781 99.9045 261.781C99.8814 261.781 99.9045 261.781 99.9045 261.73V261.341C99.8967 261.312 99.8967 261.282 99.9045 261.253C99.9242 261.225 99.9507 261.202 99.9817 261.187L101.827 260.174C101.837 260.167 101.849 260.163 101.862 260.163C101.874 260.163 101.886 260.167 101.896 260.174C101.896 260.174 101.896 260.174 101.896 260.225V260.57C101.887 260.646 101.866 260.72 101.835 260.79L101.001 263.102C100.988 263.133 100.973 263.163 100.954 263.19C100.939 263.219 100.915 263.242 100.885 263.256L100.345 263.55C100.335 263.555 100.324 263.557 100.314 263.557C100.303 263.557 100.292 263.555 100.283 263.55L100.298 263.506Z" fill="white"/>
<path d="M170.342 224.259C170.34 224.409 170.311 224.558 170.257 224.699C170.188 224.85 170.103 224.992 170.002 225.125C169.891 225.263 169.767 225.391 169.632 225.507C169.498 225.622 169.353 225.725 169.199 225.815C169.059 225.887 168.911 225.946 168.759 225.991C168.637 226.016 168.511 226.016 168.389 225.991C168.286 225.973 168.195 225.917 168.134 225.837C168.067 225.739 168.034 225.623 168.041 225.507C168.029 225.431 168.029 225.355 168.041 225.279C168.057 225.206 168.081 225.135 168.111 225.066L168.203 224.868L168.296 224.677L169.068 223.327C169.068 223.327 169.068 223.283 169.114 223.261C169.128 223.23 169.153 223.204 169.184 223.187L169.801 222.85C169.801 222.85 169.84 222.85 169.855 222.85C169.859 222.858 169.861 222.867 169.861 222.875C169.861 222.884 169.859 222.893 169.855 222.901L169.354 223.826C169.477 223.773 169.607 223.734 169.74 223.709C169.844 223.686 169.952 223.686 170.056 223.709C170.145 223.734 170.22 223.792 170.265 223.87C170.342 223.986 170.369 224.125 170.342 224.259ZM168.759 225.132C168.757 225.155 168.759 225.177 168.765 225.199C168.772 225.22 168.783 225.24 168.798 225.257C168.821 225.285 168.854 225.303 168.89 225.309C168.939 225.315 168.988 225.315 169.037 225.309L169.199 225.243L169.354 225.132C169.404 225.09 169.45 225.043 169.493 224.993C169.533 224.943 169.567 224.889 169.593 224.832C169.603 224.778 169.603 224.723 169.593 224.67C169.608 224.63 169.608 224.586 169.593 224.545C169.567 224.517 169.531 224.499 169.493 224.494C169.447 224.484 169.399 224.484 169.354 224.494C169.299 224.508 169.247 224.531 169.199 224.56L169.037 224.67L168.89 224.81C168.852 224.859 168.821 224.913 168.798 224.971C168.77 225.021 168.757 225.076 168.759 225.132Z" fill="white"/>
<path d="M171.577 223.085C171.587 223.113 171.587 223.144 171.577 223.173C171.557 223.2 171.531 223.223 171.5 223.239L170.998 223.518C170.986 223.523 170.973 223.525 170.959 223.525C170.946 223.525 170.933 223.523 170.921 223.518C170.917 223.51 170.915 223.501 170.915 223.492C170.915 223.483 170.917 223.474 170.921 223.466V222.982C170.924 222.95 170.935 222.918 170.954 222.891C170.973 222.864 170.999 222.843 171.029 222.828L171.531 222.549C171.543 222.544 171.556 222.541 171.569 222.541C171.583 222.541 171.596 222.544 171.608 222.549C171.613 222.558 171.616 222.568 171.616 222.578C171.616 222.588 171.613 222.599 171.608 222.608L171.577 223.085ZM171.577 224.369C171.587 224.398 171.587 224.429 171.577 224.457C171.557 224.485 171.531 224.508 171.5 224.523L170.998 224.802C170.986 224.807 170.973 224.81 170.959 224.81C170.946 224.81 170.933 224.807 170.921 224.802C170.917 224.794 170.915 224.785 170.915 224.776C170.915 224.768 170.917 224.759 170.921 224.751V224.266C170.924 224.234 170.935 224.203 170.954 224.176C170.973 224.149 170.999 224.127 171.029 224.112L171.531 223.833C171.543 223.828 171.556 223.826 171.569 223.826C171.583 223.826 171.596 223.828 171.608 223.833C171.613 223.842 171.616 223.852 171.616 223.863C171.616 223.873 171.613 223.883 171.608 223.892L171.577 224.369Z" fill="white"/>
<path d="M174.179 220.472C174.191 220.467 174.204 220.464 174.217 220.464C174.23 220.464 174.244 220.467 174.256 220.472C174.261 220.479 174.263 220.488 174.263 220.497C174.263 220.506 174.261 220.515 174.256 220.523V220.934C174.266 220.963 174.266 220.993 174.256 221.022C174.244 221.053 174.228 221.082 174.21 221.11L173.746 221.844C173.903 221.786 174.076 221.786 174.233 221.844C174.356 221.888 174.418 222.006 174.418 222.196C174.418 222.486 174.311 222.766 174.117 222.989C173.886 223.263 173.6 223.49 173.275 223.657C173.124 223.748 172.96 223.82 172.789 223.87C172.669 223.894 172.546 223.894 172.426 223.87C172.34 223.861 172.26 223.822 172.202 223.76C172.146 223.699 172.116 223.621 172.117 223.54C172.111 223.518 172.111 223.495 172.117 223.474C172.132 223.449 172.153 223.428 172.179 223.415L172.666 223.151C172.682 223.136 172.702 223.126 172.723 223.119C172.744 223.113 172.767 223.111 172.789 223.114H172.882H173.021C173.104 223.097 173.182 223.064 173.252 223.019C173.369 222.961 173.473 222.884 173.561 222.791C173.598 222.759 173.628 222.721 173.649 222.678C173.67 222.635 173.682 222.589 173.685 222.541C173.685 222.453 173.685 222.417 173.561 222.417C173.452 222.434 173.347 222.472 173.252 222.527L172.936 222.703C172.923 222.708 172.91 222.71 172.897 222.71C172.884 222.71 172.871 222.708 172.859 222.703C172.854 222.695 172.852 222.686 172.852 222.677C172.852 222.668 172.854 222.66 172.859 222.652V222.336C172.852 222.307 172.852 222.277 172.859 222.248C172.873 222.217 172.891 222.187 172.913 222.16L173.322 221.536L172.31 222.094C172.3 222.099 172.288 222.102 172.276 222.102C172.264 222.102 172.252 222.099 172.241 222.094C172.241 222.094 172.241 222.094 172.241 222.042V221.668C172.231 221.639 172.231 221.609 172.241 221.58L172.31 221.514L174.179 220.472Z" fill="white"/>
<path d="M176.109 219.371C176.264 219.281 176.433 219.217 176.61 219.18C176.723 219.145 176.845 219.145 176.958 219.18C177.05 219.221 177.122 219.295 177.159 219.385C177.207 219.492 177.233 219.607 177.236 219.723C177.236 219.826 177.236 219.928 177.236 220.046C177.236 220.163 177.236 220.273 177.236 220.376C177.228 220.518 177.202 220.659 177.159 220.795C177.113 220.947 177.045 221.093 176.958 221.228C176.86 221.375 176.743 221.511 176.61 221.631C176.461 221.77 176.292 221.888 176.109 221.984C175.958 222.078 175.791 222.145 175.615 222.182C175.502 222.217 175.38 222.217 175.267 222.182C175.175 222.141 175.103 222.067 175.066 221.976C175.016 221.87 174.987 221.755 174.982 221.639C174.982 221.543 174.982 221.44 174.982 221.323C174.982 221.206 174.982 221.096 174.982 220.985C174.992 220.843 175.02 220.703 175.066 220.567C175.112 220.415 175.18 220.269 175.267 220.134C175.365 219.986 175.482 219.851 175.615 219.73C175.763 219.591 175.929 219.471 176.109 219.371ZM176.526 220.78C176.526 220.56 176.526 220.354 176.526 220.163C176.531 220.112 176.531 220.06 176.526 220.009C176.514 219.969 176.49 219.933 176.456 219.906C176.416 219.894 176.373 219.894 176.333 219.906C176.264 219.916 176.199 219.939 176.14 219.972C176.069 220.011 176.004 220.058 175.947 220.112C175.899 220.161 175.857 220.215 175.823 220.273C175.795 220.328 175.772 220.384 175.754 220.442C175.746 220.503 175.746 220.565 175.754 220.626C175.738 220.831 175.738 221.037 175.754 221.242C175.744 221.293 175.744 221.345 175.754 221.396C175.763 221.435 175.788 221.469 175.823 221.492C175.863 221.507 175.907 221.507 175.947 221.492C176.016 221.483 176.083 221.458 176.14 221.418C176.211 221.384 176.276 221.34 176.333 221.286C176.383 221.238 176.427 221.184 176.464 221.125C176.494 221.069 176.517 221.01 176.533 220.949C176.537 220.892 176.535 220.836 176.526 220.78Z" fill="white"/>
<path d="M133.425 225.58V231.21C133.423 231.357 133.382 231.501 133.307 231.629C133.231 231.757 133.123 231.866 132.992 231.944L131.85 232.575C131.611 232.707 131.425 232.575 131.425 232.34V226.689C131.428 226.543 131.468 226.399 131.542 226.271C131.616 226.144 131.722 226.035 131.85 225.955L133 225.323C133.232 225.221 133.425 225.338 133.425 225.58Z" fill="white"/>
<path d="M137.416 223.386V229.008C137.412 229.154 137.371 229.296 137.297 229.424C137.223 229.551 137.118 229.66 136.991 229.742L135.841 230.373C135.61 230.498 135.417 230.373 135.417 230.138V224.479C135.424 224.339 135.467 224.203 135.541 224.082C135.615 223.961 135.718 223.858 135.841 223.782L136.991 223.151C137.231 223.019 137.416 223.136 137.416 223.386Z" fill="white"/>
<path d="M153.196 214.666V220.325C153.193 220.471 153.153 220.614 153.079 220.742C153.005 220.87 152.899 220.979 152.771 221.059L151.628 221.683C151.389 221.815 151.196 221.683 151.196 221.448V215.796C151.2 215.649 151.242 215.506 151.317 215.378C151.392 215.25 151.499 215.142 151.628 215.062L152.771 214.431C153.003 214.328 153.196 214.409 153.196 214.666Z" fill="white"/>
<path d="M154.122 214.211V219.752C154.122 220.163 154.354 220.244 154.639 219.928L160.043 214.056C160.329 213.741 160.205 213.491 159.765 213.491H154.933C154.829 213.486 154.726 213.501 154.629 213.535C154.532 213.569 154.443 213.621 154.367 213.688C154.292 213.755 154.231 213.836 154.189 213.926C154.147 214.015 154.124 214.112 154.122 214.211Z" fill="white"/>
<path d="M118.24 233.852V239.504C118.237 239.65 118.197 239.793 118.123 239.921C118.049 240.049 117.943 240.158 117.815 240.238L116.672 240.869C116.433 240.994 116.248 240.869 116.248 240.635V234.983C116.25 234.837 116.289 234.693 116.363 234.565C116.437 234.437 116.544 234.328 116.672 234.249L117.815 233.617C118.046 233.485 118.24 233.595 118.24 233.852Z" fill="white"/>
<path d="M115.483 240.987V235.218C115.483 234.777 115.229 234.689 114.92 235.019L109.176 241.192C108.867 241.523 108.991 241.794 109.462 241.794H114.634C114.746 241.795 114.857 241.775 114.96 241.735C115.064 241.695 115.158 241.635 115.237 241.56C115.316 241.485 115.379 241.395 115.421 241.297C115.463 241.199 115.485 241.093 115.483 240.987Z" fill="white"/>
<path d="M104.498 220.038C104.498 220.127 104.498 220.251 104.498 220.405V221.36C104.498 221.506 104.498 221.631 104.498 221.712C104.508 221.844 104.542 221.973 104.598 222.094C104.616 222.146 104.646 222.195 104.684 222.237C104.723 222.278 104.77 222.312 104.822 222.336C104.952 222.378 105.093 222.378 105.224 222.336C105.434 222.294 105.635 222.217 105.818 222.108C106.03 221.996 106.226 221.861 106.405 221.705C106.544 221.581 106.67 221.446 106.783 221.301C106.875 221.186 106.95 221.06 107.007 220.927C107.061 220.802 107.1 220.692 107.13 220.596C107.151 220.495 107.191 220.398 107.246 220.31C107.308 220.226 107.39 220.158 107.486 220.112L108.86 219.378C108.885 219.366 108.913 219.36 108.941 219.36C108.969 219.36 108.997 219.366 109.022 219.378C109.045 219.388 109.064 219.405 109.076 219.426C109.088 219.447 109.094 219.471 109.091 219.495C109.077 219.875 108.988 220.248 108.829 220.596C108.648 221.009 108.415 221.398 108.134 221.756C107.83 222.149 107.486 222.513 107.107 222.842C106.712 223.185 106.28 223.488 105.818 223.745C105.402 223.985 104.949 224.161 104.475 224.266C104.144 224.353 103.794 224.353 103.463 224.266C103.189 224.182 102.96 224.001 102.823 223.76C102.66 223.486 102.57 223.179 102.56 222.864C102.56 222.6 102.56 222.307 102.56 221.998C102.56 221.69 102.56 221.382 102.56 221.088C102.582 220.684 102.668 220.286 102.815 219.906C102.979 219.481 103.194 219.074 103.456 218.695C103.748 218.282 104.088 217.901 104.467 217.558C104.876 217.189 105.329 216.869 105.818 216.603C106.218 216.371 106.653 216.198 107.107 216.09C107.442 216.003 107.793 215.988 108.134 216.046C108.409 216.093 108.655 216.234 108.829 216.442C109.008 216.679 109.1 216.965 109.091 217.257C109.088 217.325 109.064 217.392 109.022 217.447C108.98 217.509 108.925 217.562 108.86 217.602L107.486 218.336C107.37 218.402 107.285 218.424 107.246 218.402C107.187 218.364 107.145 218.306 107.13 218.24C107.098 218.172 107.056 218.108 107.007 218.049C106.953 217.98 106.873 217.932 106.783 217.917C106.658 217.892 106.529 217.892 106.405 217.917C106.197 217.968 105.999 218.05 105.818 218.159C105.604 218.278 105.405 218.418 105.224 218.578C105.07 218.721 104.935 218.881 104.822 219.055C104.725 219.209 104.65 219.374 104.598 219.547C104.547 219.707 104.513 219.872 104.498 220.038Z" fill="white"/>
<path d="M110.45 216.721C110.478 216.315 110.564 215.915 110.705 215.532C110.865 215.105 111.08 214.698 111.346 214.321C111.638 213.912 111.974 213.533 112.349 213.19C112.765 212.818 113.226 212.496 113.723 212.229C114.144 211.984 114.603 211.804 115.082 211.693C115.414 211.61 115.762 211.61 116.093 211.693C116.364 211.784 116.591 211.963 116.734 212.199C116.89 212.481 116.977 212.792 116.989 213.11C116.989 213.388 116.989 213.682 116.989 213.998C116.989 214.313 116.989 214.607 116.989 214.886C116.961 215.291 116.875 215.691 116.734 216.075C116.574 216.502 116.359 216.909 116.093 217.286C115.805 217.7 115.465 218.079 115.082 218.416C114.67 218.786 114.214 219.109 113.723 219.378C113.298 219.627 112.834 219.81 112.349 219.921C112.021 220.008 111.674 220.008 111.346 219.921C111.075 219.83 110.848 219.651 110.705 219.415C110.549 219.133 110.462 218.822 110.45 218.504C110.45 218.24 110.45 217.947 110.45 217.638C110.45 217.33 110.435 217.014 110.45 216.721ZM115.082 215.921C115.082 215.796 115.082 215.664 115.082 215.51C115.082 215.356 115.082 215.209 115.082 215.055C115.082 214.9 115.082 214.761 115.082 214.622C115.082 214.482 115.082 214.357 115.082 214.247C115.072 214.11 115.035 213.976 114.974 213.851C114.92 213.749 114.83 213.668 114.719 213.623C114.588 213.585 114.449 213.585 114.318 213.623C114.119 213.667 113.928 213.742 113.754 213.844C113.546 213.951 113.354 214.085 113.183 214.24C113.031 214.382 112.897 214.539 112.781 214.71C112.677 214.866 112.591 215.034 112.527 215.209C112.472 215.379 112.436 215.553 112.419 215.73C112.41 215.862 112.41 215.994 112.419 216.126C112.419 216.273 112.419 216.42 112.419 216.574C112.419 216.728 112.419 216.875 112.419 217.022C112.41 217.149 112.41 217.276 112.419 217.403C112.417 217.529 112.45 217.654 112.513 217.764C112.577 217.875 112.669 217.968 112.781 218.035C112.998 218.13 113.314 218.035 113.754 217.829C114.12 217.641 114.432 217.371 114.663 217.042C114.895 216.713 115.038 216.336 115.082 215.943V215.921Z" fill="white"/>
<path d="M118.494 212.302C118.522 211.897 118.608 211.497 118.749 211.113C118.911 210.689 119.126 210.285 119.39 209.909C119.68 209.497 120.02 209.118 120.401 208.779C120.814 208.405 121.273 208.08 121.768 207.81C122.187 207.564 122.646 207.386 123.126 207.282C123.457 207.192 123.807 207.192 124.138 207.282C124.411 207.368 124.639 207.549 124.778 207.788C124.936 208.066 125.023 208.375 125.033 208.691C125.033 208.97 125.033 209.271 125.033 209.579C125.033 209.887 125.033 210.188 125.033 210.467C125.005 210.873 124.919 211.273 124.778 211.656C124.618 212.086 124.403 212.495 124.138 212.875C123.847 213.287 123.508 213.666 123.126 214.005C122.714 214.373 122.258 214.693 121.768 214.959C121.344 215.206 120.883 215.39 120.401 215.502C120.07 215.589 119.721 215.589 119.39 215.502C119.12 215.406 118.894 215.225 118.749 214.989C118.593 214.707 118.506 214.396 118.494 214.078C118.494 213.814 118.494 213.528 118.494 213.212C118.494 212.897 118.487 212.596 118.494 212.302ZM123.126 211.502C123.126 211.377 123.126 211.245 123.126 211.091C123.126 210.937 123.126 210.79 123.126 210.643C123.126 210.497 123.126 210.342 123.126 210.203C123.126 210.063 123.126 209.939 123.126 209.829C123.114 209.692 123.078 209.557 123.018 209.432C122.961 209.324 122.865 209.238 122.748 209.19C122.617 209.152 122.477 209.152 122.347 209.19C122.147 209.234 121.957 209.308 121.783 209.41C121.578 209.525 121.386 209.66 121.212 209.814C121.058 209.952 120.924 210.107 120.81 210.276C120.703 210.433 120.62 210.604 120.563 210.783C120.503 210.949 120.464 211.121 120.447 211.297C120.439 211.429 120.439 211.561 120.447 211.693C120.447 211.84 120.447 211.987 120.447 212.141C120.447 212.295 120.447 212.442 120.447 212.588C120.439 212.716 120.439 212.843 120.447 212.97C120.446 213.096 120.478 213.22 120.542 213.331C120.605 213.441 120.698 213.535 120.81 213.601C121.026 213.704 121.351 213.638 121.783 213.396C122.149 213.207 122.461 212.937 122.692 212.609C122.923 212.28 123.067 211.903 123.111 211.509L123.126 211.502Z" fill="white"/>
<path d="M131.912 207.722C131.943 207.709 131.977 207.702 132.012 207.702C132.047 207.702 132.081 207.709 132.112 207.722C132.141 207.735 132.164 207.757 132.179 207.783C132.194 207.809 132.201 207.839 132.197 207.869V208.926C132.191 209.01 132.162 209.091 132.112 209.161C132.062 209.238 131.993 209.303 131.912 209.351L127.063 212.009C127.032 212.024 126.998 212.032 126.963 212.032C126.928 212.032 126.894 212.024 126.863 212.009C126.809 212.009 126.786 211.942 126.786 211.869V205.432C126.788 205.348 126.815 205.267 126.863 205.197C126.915 205.121 126.984 205.056 127.063 205.006L128.438 204.272C128.469 204.257 128.503 204.25 128.538 204.25C128.573 204.25 128.607 204.257 128.638 204.272C128.667 204.283 128.69 204.303 128.706 204.328C128.721 204.353 128.727 204.383 128.723 204.412V209.55L131.912 207.722Z" fill="white"/>
<path d="M138.837 198.437C139.221 198.217 139.637 198.051 140.072 197.945C140.386 197.866 140.714 197.846 141.037 197.886C141.277 197.914 141.501 198.015 141.677 198.173C141.827 198.315 141.913 198.507 141.917 198.708C141.913 198.776 141.892 198.841 141.855 198.899C141.816 198.961 141.763 199.013 141.701 199.053L140.326 199.787C140.256 199.832 140.178 199.862 140.095 199.875C140.034 199.886 139.971 199.886 139.91 199.875L139.809 199.831C139.748 199.806 139.683 199.791 139.616 199.787C139.509 199.79 139.403 199.805 139.3 199.831C139.139 199.884 138.984 199.95 138.837 200.03C138.705 200.103 138.582 200.184 138.458 200.264C138.335 200.345 138.227 200.441 138.134 200.521C138.045 200.608 137.968 200.704 137.902 200.808C137.844 200.896 137.812 200.997 137.81 201.101C137.805 201.14 137.812 201.179 137.83 201.214C137.847 201.249 137.875 201.279 137.91 201.299C138.021 201.33 138.139 201.33 138.25 201.299C138.462 201.254 138.671 201.195 138.875 201.123L139.832 200.778C140.16 200.659 140.499 200.568 140.844 200.507C141.079 200.45 141.326 200.45 141.562 200.507C141.746 200.571 141.898 200.699 141.986 200.866C142.089 201.098 142.137 201.349 142.125 201.6C142.123 201.96 142.042 202.315 141.886 202.643C141.713 203.02 141.487 203.373 141.214 203.692C140.908 204.057 140.564 204.391 140.188 204.691C139.783 205.013 139.349 205.301 138.891 205.549C138.487 205.785 138.05 205.965 137.594 206.085C137.266 206.177 136.922 206.205 136.582 206.166C136.333 206.142 136.099 206.038 135.918 205.872C135.754 205.708 135.663 205.49 135.664 205.263C135.667 205.194 135.691 205.128 135.733 205.072C135.77 205.009 135.823 204.956 135.887 204.918L137.262 204.184C137.328 204.138 137.405 204.105 137.485 204.089C137.541 204.077 137.599 204.077 137.655 204.089L137.779 204.147C137.852 204.181 137.93 204.203 138.01 204.213C138.13 204.221 138.25 204.208 138.366 204.177C138.551 204.129 138.728 204.055 138.891 203.957C139.223 203.782 139.533 203.573 139.817 203.333C139.921 203.26 140.009 203.168 140.074 203.062C140.139 202.956 140.18 202.838 140.195 202.716C140.2 202.675 140.188 202.635 140.162 202.602C140.136 202.569 140.099 202.547 140.056 202.54C139.918 202.529 139.779 202.544 139.647 202.584C139.411 202.644 139.179 202.717 138.952 202.804L137.949 203.149C137.471 203.379 136.918 203.426 136.405 203.281C136.073 203.127 135.903 202.76 135.903 202.188C135.911 201.867 135.981 201.551 136.111 201.255C136.263 200.897 136.463 200.559 136.706 200.25C136.976 199.887 137.29 199.554 137.64 199.259C138.01 198.949 138.41 198.673 138.837 198.437Z" fill="white"/>
<path d="M143.461 198.598C143.489 198.193 143.575 197.793 143.715 197.409C143.874 196.984 144.09 196.579 144.356 196.205C144.966 195.342 145.777 194.624 146.726 194.106C147.148 193.86 147.61 193.682 148.093 193.578C148.423 193.488 148.774 193.488 149.104 193.578C149.375 193.664 149.601 193.845 149.737 194.084C149.902 194.363 149.992 194.675 150 194.994C150 195.266 150 195.567 150 195.875C150 196.183 150 196.484 150 196.763C149.973 197.17 149.885 197.57 149.737 197.952C149.58 198.382 149.367 198.791 149.104 199.171C148.493 200.032 147.679 200.746 146.726 201.255C146.305 201.506 145.843 201.689 145.36 201.799C145.031 201.885 144.685 201.885 144.356 201.799C144.084 201.707 143.856 201.524 143.715 201.285C143.559 201.004 143.472 200.692 143.461 200.375C143.461 200.11 143.461 199.824 143.461 199.508C143.461 199.193 143.445 198.914 143.461 198.598ZM148.093 197.798C148.093 197.681 148.093 197.541 148.093 197.387C148.093 197.233 148.093 197.086 148.093 196.939C148.093 196.793 148.093 196.639 148.093 196.499C148.093 196.36 148.093 196.235 148.093 196.125C148.082 195.987 148.043 195.852 147.977 195.728C147.926 195.627 147.838 195.546 147.73 195.501C147.598 195.467 147.46 195.467 147.328 195.501C147.127 195.545 146.934 195.619 146.757 195.721C146.554 195.836 146.366 195.971 146.194 196.125C146.04 196.263 145.906 196.418 145.792 196.587C145.686 196.745 145.6 196.916 145.537 197.094C145.479 197.26 145.443 197.433 145.429 197.607C145.421 197.739 145.421 197.872 145.429 198.004C145.429 198.151 145.429 198.305 145.429 198.452C145.429 198.598 145.429 198.752 145.429 198.899C145.42 199.026 145.42 199.154 145.429 199.281C145.428 199.407 145.46 199.531 145.524 199.642C145.587 199.752 145.68 199.845 145.792 199.912C146.001 200.015 146.325 199.949 146.757 199.707C147.153 199.506 147.486 199.21 147.722 198.848C147.916 198.526 148.032 198.168 148.062 197.798H148.093Z" fill="white"/>
<path d="M156.515 195.809C156.474 195.838 156.426 195.859 156.376 195.871C156.325 195.882 156.273 195.883 156.222 195.875C156.171 195.868 156.123 195.847 156.083 195.816L153.682 193.725V197.094C153.681 197.179 153.651 197.261 153.597 197.328C153.549 197.406 153.483 197.471 153.404 197.519L152.03 198.253C151.999 198.268 151.964 198.276 151.93 198.276C151.895 198.276 151.86 198.268 151.829 198.253C151.801 198.242 151.777 198.223 151.762 198.197C151.746 198.172 151.74 198.143 151.744 198.114V191.721C151.75 191.637 151.78 191.556 151.829 191.486C151.88 191.408 151.949 191.343 152.03 191.295L153.118 190.7C153.159 190.672 153.205 190.651 153.254 190.639C153.303 190.628 153.354 190.626 153.404 190.634C153.458 190.641 153.509 190.661 153.551 190.693L155.944 192.785V189.416C155.949 189.332 155.978 189.25 156.029 189.181C156.08 189.104 156.148 189.038 156.23 188.99L157.604 188.256C157.635 188.241 157.669 188.233 157.704 188.233C157.739 188.233 157.774 188.241 157.804 188.256C157.859 188.256 157.882 188.322 157.882 188.396V194.833C157.879 194.916 157.852 194.998 157.804 195.068C157.752 195.144 157.683 195.208 157.604 195.259L156.515 195.809Z" fill="white"/>
<path d="M162.892 186.832C162.673 186.949 162.47 187.092 162.29 187.258C162.141 187.4 162.009 187.558 161.896 187.728C161.801 187.882 161.726 188.048 161.672 188.22C161.625 188.381 161.591 188.545 161.572 188.711C161.572 188.807 161.572 188.932 161.572 189.086V189.563C161.572 189.724 161.572 189.886 161.572 190.04C161.572 190.194 161.572 190.304 161.572 190.392C161.583 190.524 161.617 190.653 161.672 190.774C161.714 190.878 161.793 190.964 161.896 191.016C162.023 191.067 162.163 191.08 162.298 191.053C162.506 191.011 162.706 190.939 162.892 190.84C163.071 190.741 163.242 190.628 163.402 190.502C163.556 190.378 163.696 190.237 163.818 190.084C163.939 189.932 164.035 189.764 164.104 189.585C164.175 189.404 164.212 189.213 164.212 189.02L163.332 189.504C163.301 189.519 163.267 189.527 163.232 189.527C163.197 189.527 163.162 189.519 163.131 189.504C163.103 189.493 163.079 189.473 163.064 189.448C163.049 189.423 163.042 189.393 163.046 189.365V188.308C163.051 188.223 163.081 188.142 163.131 188.073C163.18 187.994 163.249 187.928 163.332 187.882L165.864 186.487C165.896 186.474 165.93 186.467 165.965 186.467C165.999 186.467 166.033 186.474 166.065 186.487C166.093 186.501 166.116 186.522 166.132 186.548C166.147 186.574 166.153 186.604 166.15 186.634V187.904C166.147 188.341 166.061 188.774 165.895 189.181C165.723 189.621 165.492 190.038 165.208 190.422C164.906 190.827 164.559 191.201 164.174 191.537C163.78 191.875 163.351 192.173 162.892 192.425C162.475 192.671 162.019 192.849 161.541 192.954C161.21 193.04 160.861 193.04 160.53 192.954C160.258 192.865 160.031 192.685 159.889 192.447C159.727 192.171 159.639 191.861 159.634 191.545C159.634 191.28 159.634 190.994 159.634 190.678C159.634 190.363 159.634 190.069 159.634 189.776C159.649 189.372 159.732 188.973 159.881 188.594C160.044 188.166 160.262 187.76 160.53 187.383C160.816 186.965 161.155 186.583 161.541 186.245C161.948 185.873 162.402 185.55 162.892 185.284C163.302 185.048 163.747 184.872 164.212 184.762C164.54 184.694 164.88 184.694 165.208 184.762C165.45 184.807 165.671 184.923 165.841 185.093C165.992 185.253 166.082 185.458 166.096 185.673C166.098 185.739 166.076 185.804 166.034 185.856C165.99 185.92 165.932 185.975 165.864 186.018L164.475 186.752C164.367 186.81 164.282 186.825 164.228 186.796L164.05 186.715C163.933 186.643 163.796 186.604 163.656 186.605C163.386 186.619 163.123 186.697 162.892 186.832Z" fill="white"/>
<path d="M119.706 221.866C119.702 221.913 119.702 221.959 119.706 222.006V222.402C119.701 222.446 119.701 222.49 119.706 222.534C119.698 222.585 119.698 222.637 119.706 222.688C119.727 222.726 119.759 222.757 119.799 222.776C119.847 222.789 119.898 222.789 119.946 222.776C120.024 222.756 120.099 222.726 120.169 222.688C120.251 222.646 120.326 222.594 120.393 222.534C120.448 222.488 120.498 222.437 120.54 222.38L120.625 222.241L120.671 222.116C120.678 222.077 120.691 222.04 120.71 222.006C120.734 221.974 120.766 221.949 120.803 221.932L121.32 221.646C121.34 221.639 121.362 221.639 121.382 221.646C121.385 221.653 121.387 221.66 121.387 221.668C121.387 221.676 121.385 221.683 121.382 221.69C121.372 221.834 121.339 221.975 121.281 222.108C121.213 222.263 121.125 222.408 121.019 222.542C120.902 222.693 120.77 222.833 120.625 222.96C120.476 223.089 120.313 223.202 120.139 223.298C119.981 223.39 119.809 223.457 119.629 223.496C119.505 223.526 119.375 223.526 119.251 223.496C119.146 223.46 119.058 223.39 119.004 223.298C118.945 223.194 118.913 223.078 118.911 222.96C118.911 222.857 118.911 222.747 118.911 222.63C118.911 222.512 118.911 222.402 118.911 222.285C118.914 222.134 118.945 221.984 119.004 221.844C119.066 221.681 119.149 221.526 119.251 221.382C119.37 221.219 119.507 221.069 119.66 220.934C119.816 220.798 119.987 220.677 120.169 220.574C120.321 220.488 120.485 220.424 120.656 220.384C120.785 220.355 120.92 220.355 121.05 220.384C121.153 220.399 121.247 220.452 121.312 220.53C121.376 220.622 121.411 220.729 121.412 220.839C121.417 220.863 121.417 220.888 121.412 220.912L121.351 220.971L120.833 221.257C120.787 221.257 120.756 221.257 120.741 221.257C120.73 221.25 120.722 221.241 120.715 221.231C120.709 221.221 120.704 221.21 120.702 221.198L120.656 221.125C120.635 221.099 120.605 221.081 120.571 221.073C120.523 221.063 120.473 221.063 120.424 221.073C120.346 221.093 120.271 221.123 120.2 221.162C120.12 221.208 120.045 221.262 119.976 221.323C119.919 221.377 119.869 221.439 119.83 221.507C119.788 221.562 119.757 221.624 119.737 221.69C119.72 221.747 119.71 221.807 119.706 221.866Z" fill="white"/>
<path d="M121.976 220.611C121.988 220.458 122.022 220.308 122.076 220.163C122.137 220.001 122.218 219.846 122.316 219.701C122.429 219.547 122.558 219.404 122.702 219.275C122.857 219.134 123.03 219.013 123.219 218.915C123.376 218.821 123.548 218.751 123.728 218.71C123.855 218.679 123.988 218.679 124.114 218.71C124.215 218.746 124.299 218.813 124.354 218.901C124.417 219.006 124.451 219.125 124.454 219.246C124.454 219.349 124.454 219.466 124.454 219.583C124.454 219.701 124.454 219.811 124.454 219.921C124.445 220.074 124.412 220.225 124.354 220.369C124.293 220.531 124.213 220.686 124.114 220.831C123.881 221.153 123.575 221.421 123.219 221.617C123.059 221.71 122.884 221.78 122.702 221.822C122.575 221.856 122.442 221.856 122.316 221.822C122.213 221.786 122.128 221.716 122.076 221.624C122.015 221.521 121.98 221.405 121.976 221.286C121.976 221.184 121.976 221.073 121.976 220.956C121.976 220.839 121.976 220.721 121.976 220.611ZM123.721 220.31C123.721 220.266 123.721 220.215 123.721 220.156V219.818C123.721 219.767 123.721 219.716 123.721 219.679C123.727 219.628 123.727 219.576 123.721 219.525C123.695 219.488 123.661 219.458 123.62 219.437C123.57 219.425 123.517 219.425 123.466 219.437C123.392 219.456 123.322 219.486 123.258 219.525C123.18 219.566 123.107 219.615 123.041 219.671C122.983 219.725 122.931 219.784 122.887 219.848C122.85 219.908 122.819 219.972 122.794 220.038C122.772 220.103 122.756 220.169 122.748 220.237C122.748 220.281 122.748 220.332 122.748 220.383V220.721C122.748 220.78 122.748 220.824 122.748 220.868C122.749 220.916 122.761 220.963 122.786 221.006C122.81 221.048 122.845 221.084 122.887 221.11C122.972 221.11 123.088 221.11 123.258 221.029C123.406 220.954 123.531 220.842 123.62 220.706C123.675 220.581 123.701 220.446 123.698 220.31H123.721Z" fill="white"/>
<path d="M125.002 218.937C125.012 218.785 125.043 218.634 125.095 218.49C125.157 218.329 125.24 218.176 125.342 218.035C125.45 217.879 125.577 217.736 125.72 217.609C125.874 217.465 126.048 217.341 126.237 217.242C126.396 217.146 126.571 217.076 126.755 217.036C126.879 217.007 127.009 217.007 127.133 217.036C127.238 217.072 127.325 217.142 127.38 217.235C127.44 217.341 127.472 217.459 127.473 217.58C127.473 217.682 127.473 217.792 127.473 217.91C127.473 218.027 127.473 218.137 127.473 218.248C127.463 218.4 127.432 218.551 127.38 218.695C127.318 218.858 127.235 219.014 127.133 219.158C127.025 219.313 126.898 219.456 126.755 219.583C126.597 219.724 126.424 219.847 126.237 219.95C126.078 220.043 125.903 220.11 125.72 220.149C125.597 220.186 125.465 220.186 125.342 220.149C125.238 220.115 125.15 220.048 125.095 219.958C125.037 219.851 125.005 219.733 125.002 219.613C125.002 219.51 125.002 219.4 125.002 219.282C125.002 219.165 124.994 219.055 125.002 218.937ZM126.739 218.637C126.743 218.585 126.743 218.534 126.739 218.482C126.743 218.426 126.743 218.37 126.739 218.314C126.743 218.257 126.743 218.201 126.739 218.145C126.743 218.098 126.743 218.052 126.739 218.005C126.752 217.955 126.752 217.902 126.739 217.851C126.719 217.815 126.686 217.787 126.647 217.77C126.596 217.755 126.542 217.755 126.492 217.77C126.416 217.785 126.342 217.812 126.276 217.851C126.196 217.892 126.124 217.944 126.06 218.005C126.001 218.055 125.951 218.115 125.913 218.181C125.869 218.24 125.835 218.304 125.813 218.372C125.801 218.435 125.801 218.5 125.813 218.563C125.809 218.614 125.809 218.666 125.813 218.717C125.809 218.774 125.809 218.83 125.813 218.886C125.809 218.942 125.809 218.999 125.813 219.055C125.809 219.101 125.809 219.148 125.813 219.194C125.809 219.243 125.821 219.292 125.845 219.335C125.87 219.378 125.907 219.413 125.952 219.437C126.029 219.473 126.152 219.437 126.315 219.356C126.463 219.28 126.588 219.169 126.677 219.033C126.733 218.908 126.755 218.772 126.739 218.637Z" fill="white"/>
<path d="M130.082 217.205C130.093 217.201 130.105 217.198 130.117 217.198C130.129 217.198 130.141 217.201 130.151 217.205C130.156 217.214 130.159 217.224 130.159 217.235C130.159 217.245 130.156 217.255 130.151 217.264V217.66C130.16 217.689 130.16 217.72 130.151 217.748C130.137 217.779 130.113 217.805 130.082 217.822L128.245 218.827C128.233 218.834 128.22 218.837 128.206 218.837C128.192 218.837 128.179 218.834 128.167 218.827C128.163 218.82 128.16 218.811 128.16 218.802C128.16 218.793 128.163 218.784 128.167 218.776V216.339C128.157 216.311 128.157 216.28 128.167 216.251C128.185 216.22 128.212 216.194 128.245 216.178L128.762 215.891C128.762 215.891 128.816 215.891 128.839 215.891C128.862 215.891 128.839 215.891 128.839 215.943V217.873L130.082 217.205Z" fill="white"/>
<path d="M133.039 213.55C133.093 213.55 133.131 213.506 133.155 213.55C133.178 213.594 133.209 213.55 133.216 213.601L134.081 215.502V215.546C134.089 215.57 134.089 215.596 134.081 215.62L134.019 215.679L133.517 215.957C133.48 215.971 133.439 215.971 133.402 215.957C133.402 215.957 133.402 215.957 133.402 215.913L133.294 215.664L132.236 216.244L132.128 216.618C132.117 216.647 132.101 216.674 132.081 216.699C132.053 216.738 132.016 216.77 131.973 216.794L131.472 217.073C131.452 217.08 131.43 217.08 131.41 217.073C131.406 217.066 131.404 217.059 131.404 217.051C131.404 217.043 131.406 217.036 131.41 217.029C131.404 217.007 131.404 216.985 131.41 216.963L132.274 214.115C132.284 214.073 132.302 214.033 132.329 213.998C132.358 213.952 132.401 213.917 132.452 213.895L133.039 213.55ZM132.398 215.546L133.039 215.194L132.715 214.46L132.398 215.546Z" fill="white"/>
<path d="M136.559 213.653C136.571 213.646 136.584 213.643 136.598 213.643C136.611 213.643 136.625 213.646 136.636 213.653C136.64 213.661 136.643 213.67 136.643 213.678C136.643 213.687 136.64 213.696 136.636 213.704V214.108C136.643 214.137 136.643 214.167 136.636 214.196C136.615 214.224 136.589 214.249 136.559 214.269L134.722 215.275C134.722 215.275 134.668 215.275 134.645 215.275C134.64 215.267 134.637 215.258 134.637 215.249C134.637 215.24 134.64 215.231 134.645 215.223V212.787C134.639 212.757 134.639 212.728 134.645 212.699C134.664 212.671 134.691 212.648 134.722 212.632L135.239 212.346C135.251 212.341 135.264 212.339 135.278 212.339C135.291 212.339 135.304 212.341 135.316 212.346C135.316 212.346 135.316 212.346 135.316 212.405V214.328L136.559 213.653Z" fill="white"/>
<path d="M138.366 212.596H138.312L137.941 212.17V213.425C137.946 213.454 137.946 213.484 137.941 213.513C137.919 213.539 137.893 213.561 137.864 213.579L137.339 213.866C137.328 213.87 137.316 213.873 137.304 213.873C137.292 213.873 137.28 213.87 137.269 213.866C137.269 213.866 137.269 213.866 137.269 213.807V211.392C137.259 211.363 137.259 211.333 137.269 211.304C137.284 211.273 137.308 211.247 137.339 211.231L137.802 210.974C137.853 210.944 137.892 210.944 137.918 210.974C137.918 210.974 137.964 210.974 137.972 211.01L138.613 211.7L139.261 210.298C139.273 210.267 139.289 210.238 139.307 210.21C139.341 210.169 139.383 210.134 139.431 210.107L139.886 209.851C139.899 209.845 139.912 209.843 139.925 209.843C139.938 209.843 139.952 209.845 139.964 209.851C139.964 209.851 139.964 209.851 139.964 209.902V212.339C139.974 212.367 139.974 212.398 139.964 212.427C139.944 212.457 139.918 212.482 139.886 212.5L139.369 212.787C139.369 212.787 139.315 212.787 139.292 212.787C139.269 212.787 139.292 212.787 139.292 212.735V211.487L138.921 212.317L138.867 212.405C138.844 212.439 138.812 212.467 138.775 212.486L138.52 212.625C138.495 212.64 138.465 212.645 138.437 212.639C138.408 212.634 138.383 212.618 138.366 212.596Z" fill="white"/>
<path d="M140.821 211.913C140.81 211.918 140.798 211.921 140.786 211.921C140.774 211.921 140.762 211.918 140.751 211.913C140.751 211.913 140.751 211.913 140.751 211.862V209.425C140.741 209.396 140.741 209.365 140.751 209.337C140.768 209.307 140.792 209.282 140.821 209.263L142.102 208.566C142.237 208.479 142.389 208.419 142.55 208.39C142.646 208.363 142.747 208.363 142.843 208.39C142.914 208.427 142.968 208.487 142.998 208.559C143.029 208.641 143.045 208.728 143.044 208.816C143.052 208.884 143.052 208.953 143.044 209.021C143.044 209.08 143.044 209.139 142.982 209.19C142.96 209.238 142.934 209.285 142.905 209.329L142.843 209.418C142.887 209.417 142.93 209.428 142.968 209.448C143.006 209.469 143.037 209.499 143.059 209.535C143.108 209.623 143.13 209.722 143.121 209.821C143.12 209.933 143.104 210.044 143.075 210.152C143.038 210.272 142.987 210.388 142.92 210.496C142.839 210.619 142.743 210.732 142.635 210.834C142.507 210.954 142.365 211.057 142.21 211.142L140.821 211.913ZM142.31 209.256C142.313 209.232 142.309 209.207 142.298 209.185C142.287 209.163 142.27 209.145 142.249 209.131C142.216 209.126 142.183 209.127 142.151 209.134C142.119 209.142 142.089 209.156 142.063 209.175L141.454 209.513V209.924L142.063 209.586C142.137 209.549 142.2 209.496 142.249 209.432C142.285 209.379 142.306 209.319 142.31 209.256ZM141.454 210.981L142.102 210.621C142.182 210.583 142.249 210.525 142.295 210.452C142.338 210.391 142.362 210.32 142.365 210.247C142.368 210.222 142.363 210.197 142.35 210.174C142.338 210.152 142.319 210.134 142.295 210.122C142.261 210.117 142.227 210.118 142.194 210.126C142.161 210.133 142.129 210.147 142.102 210.166L141.454 210.519V210.981Z" fill="white"/>
<path d="M146.016 206.423C146.027 206.418 146.039 206.416 146.051 206.416C146.063 206.416 146.075 206.418 146.086 206.423C146.097 206.428 146.107 206.437 146.114 206.447C146.12 206.457 146.124 206.469 146.124 206.482V207.95C146.123 208.122 146.092 208.293 146.032 208.456C145.976 208.624 145.893 208.783 145.784 208.926C145.674 209.077 145.547 209.217 145.406 209.344C145.254 209.47 145.092 209.583 144.92 209.682C144.764 209.766 144.598 209.832 144.426 209.88C144.299 209.911 144.166 209.911 144.04 209.88C143.935 209.843 143.849 209.77 143.8 209.674C143.732 209.547 143.7 209.406 143.708 209.263V207.759C143.701 207.73 143.701 207.7 143.708 207.671C143.727 207.641 143.754 207.616 143.785 207.597L144.302 207.311C144.314 207.306 144.328 207.303 144.341 207.303C144.354 207.303 144.367 207.306 144.379 207.311C144.384 207.319 144.387 207.328 144.387 207.337C144.387 207.346 144.384 207.355 144.379 207.362V208.83C144.379 208.984 144.418 209.08 144.495 209.124C144.572 209.168 144.696 209.124 144.858 209.058C145.001 208.98 145.12 208.869 145.205 208.735C145.284 208.608 145.326 208.464 145.329 208.317V206.849C145.319 206.82 145.319 206.789 145.329 206.76C145.344 206.73 145.368 206.704 145.398 206.687L146.016 206.423Z" fill="white"/>
<path d="M148.008 207.304C147.987 207.296 147.968 207.283 147.954 207.267L147.583 206.849V208.104C147.59 208.133 147.59 208.163 147.583 208.192C147.566 208.219 147.542 208.242 147.514 208.258L146.989 208.544C146.978 208.549 146.966 208.551 146.954 208.551C146.942 208.551 146.93 208.549 146.919 208.544C146.919 208.544 146.919 208.544 146.919 208.485V206.056C146.91 206.025 146.91 205.992 146.919 205.96C146.936 205.933 146.96 205.911 146.989 205.894L147.452 205.637C147.509 205.608 147.547 205.608 147.568 205.637H147.622L148.263 206.335L148.903 204.933C148.925 204.906 148.943 204.876 148.957 204.845C148.991 204.803 149.033 204.768 149.081 204.742L149.536 204.485C149.548 204.48 149.562 204.477 149.575 204.477C149.588 204.477 149.601 204.48 149.614 204.485C149.614 204.485 149.614 204.485 149.614 204.536V206.988C149.624 207.017 149.624 207.048 149.614 207.076C149.594 207.106 149.568 207.131 149.536 207.15L149.019 207.436C149.007 207.441 148.994 207.444 148.981 207.444C148.967 207.444 148.954 207.441 148.942 207.436C148.942 207.436 148.942 207.436 148.942 207.384V206.137L148.571 206.959L148.517 207.054C148.494 207.088 148.462 207.116 148.425 207.135L148.17 207.274C148.161 207.286 148.15 207.297 148.138 207.305C148.125 207.313 148.11 207.319 148.095 207.321C148.08 207.324 148.065 207.324 148.05 207.321C148.035 207.318 148.02 207.312 148.008 207.304Z" fill="white"/>
<path opacity="0.3" d="M106.86 256.555L163.1 225.683C164.019 225.177 164.768 225.536 164.768 226.483C164.727 227.017 164.555 227.534 164.266 227.993C163.976 228.452 163.577 228.84 163.1 229.125L106.86 259.998C105.934 260.504 105.185 260.144 105.185 259.19C105.227 258.657 105.4 258.14 105.692 257.682C105.983 257.225 106.383 256.838 106.86 256.555Z" fill="white"/>
<path d="M106.86 256.555L149.089 233.368C150.015 232.862 150.764 233.221 150.764 234.175C150.722 234.709 150.548 235.225 150.257 235.683C149.966 236.141 149.566 236.527 149.089 236.81L106.86 259.998C105.934 260.504 105.185 260.144 105.185 259.19C105.227 258.657 105.4 258.14 105.692 257.682C105.983 257.224 106.383 256.838 106.86 256.555Z" fill="white"/>
<path d="M161.124 88.8654L110.821 116.383V170.89C109.584 171.09 108.396 171.503 107.316 172.108C101.518 175.287 96.8165 183.03 96.8165 189.401C96.8165 192.814 98.183 195.127 100.329 196.059L104.027 197.754C105.911 198.723 108.481 198.554 111.322 197.02C117.12 193.835 121.822 186.091 121.822 179.727V129.815L154.145 112.126V147.27C152.906 147.468 151.715 147.881 150.633 148.488C144.835 151.674 140.133 159.41 140.133 165.781C140.133 169.194 141.492 171.499 143.638 172.431L147.236 174.083C149.135 175.11 151.744 174.956 154.632 173.349C160.429 170.163 165.131 162.427 165.131 156.063V90.7371L161.124 88.8654Z" fill="#709EF9"/>
<path opacity="0.15" d="M161.124 88.8654L110.821 116.383V170.89C109.584 171.09 108.396 171.503 107.316 172.108C101.518 175.287 96.8165 183.03 96.8165 189.401C96.8165 192.814 98.183 195.127 100.329 196.059L104.027 197.754C105.911 198.723 108.481 198.554 111.322 197.02C117.12 193.835 121.822 186.091 121.822 179.727V129.815L154.145 112.126V147.27C152.906 147.468 151.715 147.881 150.633 148.488C144.835 151.674 140.133 159.41 140.133 165.781C140.133 169.194 141.492 171.499 143.638 172.431L147.236 174.083C149.135 175.11 151.744 174.956 154.632 173.349C160.429 170.163 165.131 162.427 165.131 156.063V90.7371L161.124 88.8654Z" fill="black"/>
<path d="M120.965 184.667L114.789 172.717L110.821 170.89C109.584 171.09 108.396 171.503 107.316 172.108C104.786 173.588 102.626 175.574 100.985 177.929L119.513 188.102C120.09 186.994 120.575 185.846 120.965 184.667Z" fill="#709EF9"/>
<path opacity="0.4" d="M120.965 184.667L114.789 172.717L110.821 170.89C109.584 171.09 108.396 171.503 107.316 172.108C104.786 173.588 102.626 175.574 100.985 177.929L119.513 188.102C120.09 186.994 120.575 185.846 120.965 184.667Z" fill="white"/>
<path d="M164.251 160.996L158.075 149.039L154.099 147.211C152.865 147.411 151.68 147.824 150.602 148.429C148.068 149.907 145.905 151.894 144.264 154.25L162.792 164.423C163.374 163.32 163.862 162.173 164.251 160.996Z" fill="#709EF9"/>
<path opacity="0.4" d="M164.251 160.996L158.075 149.039L154.099 147.211C152.865 147.411 151.68 147.824 150.602 148.429C148.068 149.907 145.905 151.894 144.264 154.25L162.792 164.423C163.374 163.32 163.862 162.173 164.251 160.996Z" fill="white"/>
<path opacity="0.6" d="M165.092 90.693L161.124 88.8654L110.821 116.383L114.789 118.211L165.092 90.693Z" fill="white"/>
<path d="M114.789 118.211V172.717C113.552 172.917 112.364 173.33 111.284 173.936C105.486 177.114 100.785 184.858 100.785 191.229C100.785 197.6 105.494 200.169 111.292 196.991C117.089 193.813 121.791 186.062 121.791 179.698V129.786L158.075 109.931V149.061C156.836 149.26 155.645 149.673 154.562 150.279C148.764 153.465 144.063 161.201 144.063 167.572C144.063 173.943 148.772 176.52 154.57 173.334C160.368 170.148 165.069 162.412 165.069 156.048V90.7224L114.789 118.211Z" fill="#709EF9"/>
<path d="M320.303 180.997C322.673 186.583 315.493 192.741 304.863 195.244C294.232 197.747 278.098 195.508 267.506 189.702C256.914 183.896 265.653 172.292 275.805 168.255C285.957 164.218 313.139 169.048 320.303 180.997Z" fill="#709EF9"/>
<path opacity="0.15" d="M320.303 180.997C322.673 186.583 315.493 192.741 304.863 195.244C294.232 197.747 278.098 195.508 267.506 189.702C256.914 183.896 265.653 172.292 275.805 168.255C285.957 164.218 313.139 169.048 320.303 180.997Z" fill="black"/>
<path d="M304.623 186.598C307.65 160.386 303.62 155.894 294.31 140.451L260.226 143.387L276.399 167.609C276.399 167.609 278.978 200.991 280.398 214.277C281.209 221.932 284.173 230.674 287.856 245.068C290.017 253.524 294.032 266.53 295.576 273.65C296.023 275.808 301.798 278.245 305.874 271.925C306.191 263.499 305.951 245.273 305.874 238.895C305.712 223.826 300.54 213.939 300.54 213.939C300.54 213.939 302.925 201.3 304.623 186.598Z" fill="#FFA8A7"/>
<path d="M264.256 245.714C264.178 232.465 263.623 229.375 263.051 225.522C262.389 220.607 260.972 215.812 258.844 211.289L281.162 169.385L260.226 144.15C259.886 145.684 235.406 204.61 238.525 215.554C239.976 220.64 248.206 245.354 254.806 264.482C255.399 265.61 255.93 266.766 256.397 267.947C256.814 269.084 265.02 264.152 265.02 264.152C266.031 261.73 264.742 259.968 264.703 259.087C264.541 254.904 264.294 252.349 264.256 245.714Z" fill="#FFA8A7"/>
<path d="M258.929 147.534C255.841 155.403 247.982 175.301 242.887 191.846C251.379 195.604 258.929 196.984 266.965 196.015L277.133 176.931C277.503 181.533 277.974 187.346 278.468 193.196C279.24 192.925 280.012 192.631 280.784 192.323C290.148 188.653 298.347 184.843 304.955 183.324C307.009 162.632 304.052 156.526 297.158 145.156L258.929 147.534Z" fill="#F28F8F"/>
<path d="M257.732 146.984C252.529 155.285 228.396 164.423 228.396 164.423C228.396 164.423 227.562 175.492 238.695 180.571C249.827 185.651 257.732 146.984 257.732 146.984Z" fill="#709EF9"/>
<path opacity="0.15" d="M257.732 146.984C252.529 155.285 228.396 164.423 228.396 164.423C228.396 164.423 227.562 175.492 238.695 180.571C249.827 185.651 257.732 146.984 257.732 146.984Z" fill="black"/>
<path d="M260.226 143.416C252.953 154.485 243.01 159.014 230.627 177.07C234.92 184.968 250.9 192.836 265.012 192.352C280.792 191.809 297.591 179.243 306.824 177.555C316.234 175.83 320.303 180.997 320.303 180.997C320.303 180.997 313.355 165.466 295.506 141.897L260.226 143.416Z" fill="#709EF9"/>
<path d="M309.611 278.56C310.637 280.572 311.402 286.517 311.402 286.517C311.402 286.517 310.9 288.719 307.758 290.774L304.353 282.994L309.611 278.56Z" fill="#263238"/>
<path d="M307.758 290.774L299.613 289.974L296.317 283.933L305.797 286.282L307.758 290.774Z" fill="black"/>
<path d="M295.576 273.701L295.19 272.189C294.271 272.879 293.8 281.254 291.97 287.31C290.272 292.866 285.37 296.742 284.096 299.267C282.344 302.65 287.887 305.395 295.066 302.305C298.625 300.771 303.767 297.329 304.755 294.62C305.743 291.912 305.249 287.39 306.106 285.372C306.963 283.353 309.472 280.704 309.649 278.56C309.728 276.642 309.286 274.736 308.368 273.026C307.356 271.323 306.978 269.451 305.99 269.488L305.944 271.052C305.666 272.131 304.16 273.547 300.401 274.531C298.579 274.993 296.765 275.096 295.576 273.701Z" fill="#37474F"/>
<path d="M269.791 267.176C271.126 269.018 272.825 274.795 272.825 274.795C272.825 274.795 272.67 277.048 269.883 279.529L265.29 272.314L269.791 267.176Z" fill="#263238"/>
<path d="M269.884 279.559L261.693 279.926L257.477 274.428L267.228 275.389L269.884 279.559Z" fill="black"/>
<path d="M254.806 264.482L254.312 263.066C253.116 263.345 253.54 265.547 253.594 266.222C253.702 268.167 253.864 270.105 253.934 272.05C254.027 274.2 253.919 276.355 253.61 278.487C253.293 280.528 253.239 282.649 252.344 284.557C251.448 286.466 249.48 287.853 247.966 289.299C247.555 289.634 247.243 290.067 247.063 290.554C246.832 291.464 247.58 292.338 248.399 292.859C249.839 293.726 251.52 294.16 253.224 294.106C254.917 294.045 256.592 293.748 258.195 293.226C261.07 292.406 263.686 290.92 265.807 288.902C267.83 286.899 267.73 283.669 267.606 281.056C267.506 278.935 266.834 276.549 267.359 274.45C267.884 272.351 269.953 269.312 269.791 267.205C269.546 265.405 268.8 263.7 267.629 262.266C266.363 260.724 265.259 258.669 264.703 259.087L264.811 260.416C264.703 261.532 265.221 263.242 261.654 264.754C259.963 265.466 256.196 265.708 254.806 264.482Z" fill="#37474F"/>
<path d="M278.067 112.801C277.266 114.478 276.557 116.193 275.944 117.939C275.474 119.59 274.373 121.014 272.856 121.932C271.662 122.804 270.367 123.543 268.996 124.134C267.438 124.496 265.829 124.61 264.232 124.472C261.09 124.387 257.998 123.696 255.146 122.439C252.315 121.216 249.823 119.384 247.866 117.088C245.689 114.467 244.153 110.996 244.485 107.612C244.801 104.448 246.206 101.461 248.345 99.6919C246.793 100.609 245.481 101.849 244.507 103.319C243.534 104.789 242.924 106.45 242.725 108.177C241.428 103.039 243.072 99.3249 245.859 95.8971C248.646 92.4693 251.741 91.4197 255.316 88.7259C257.686 86.935 259.176 85.489 259.948 82.8539C260.72 80.2189 260.542 77.437 260.542 74.824C260.554 71.8373 261.321 68.897 262.779 66.2513C264.237 63.6057 266.342 61.3322 268.918 59.6229C271.548 57.9119 274.582 56.8453 277.75 56.518C282.299 56.0927 286.881 56.0927 291.43 56.518C295.12 56.9438 299.026 58.0301 301.929 60.2321C303.137 61.1398 304.112 62.2966 304.781 63.6153C305.45 64.9339 305.794 66.3798 305.789 67.8437C305.612 72.1449 303.574 75.7488 300.277 78.7069C302.309 79.9786 303.935 81.7557 304.979 83.8449C306.067 86.1937 306.615 88.1534 305.998 90.7518C305.563 92.7625 304.485 94.596 302.91 95.9999C303.149 93.5557 302.91 92.4253 301.914 90.994C302.151 92.3609 302.138 93.7564 301.875 95.1191C301.577 96.6013 301.043 98.0318 300.293 99.3616C299.187 101.427 297.507 103.166 295.437 104.39C293.167 105.623 290.457 105.806 287.863 106.114C285.269 106.423 282.537 106.951 280.645 108.669C279.489 109.858 278.61 111.266 278.067 112.801Z" fill="#263238"/>
<path d="M263.978 65.6417C263.784 65.9164 263.535 66.1521 263.246 66.3355C262.956 66.5188 262.632 66.6462 262.291 66.7102C261.949 66.7743 261.598 66.7738 261.257 66.7089C260.916 66.6439 260.592 66.5157 260.303 66.3316C260.014 66.1475 259.766 65.9111 259.573 65.6359C259.38 65.3607 259.246 65.052 259.179 64.7276C259.112 64.4032 259.112 64.0693 259.181 63.745C259.249 63.4208 259.384 63.1125 259.577 62.8378L263.978 65.6417Z" fill="#263238"/>
<path d="M264.379 65.7591C263.678 65.8039 262.987 65.582 262.457 65.1422C261.928 64.7024 261.605 64.0807 261.557 63.414C261.51 62.7472 261.744 62.09 262.206 61.5869C262.669 61.0838 263.323 60.776 264.024 60.7312L264.379 65.7591Z" fill="#263238"/>
<path d="M270.316 96.543C267.637 96.0953 265.028 95.809 261.554 97.6073C258.08 99.4056 253.718 104.83 249.927 109.997C246.137 115.165 242.207 119.539 242.207 119.539C242.207 119.539 228.906 109.212 226.814 105.593C225.717 103.707 226.659 102.775 225.617 99.046C224.436 94.8108 226.922 92.3739 224.258 92.6602C221.302 92.9831 221.657 97.7982 221.657 97.7982C220.522 95.909 219.613 93.9049 218.947 91.8234C217.403 87.1919 212.987 87.7057 211.127 92.117C209.227 96.6458 211.127 101.358 216.446 108.742C221.981 116.412 233.43 127.672 237.421 131.129C243.419 136.267 246.399 133.463 251.255 128.692C258.257 121.807 268.741 110.628 268.741 110.628L265.197 104.228L270.316 96.543Z" fill="#FFA8A7"/>
<path d="M294.232 132.59C294.958 129.852 295.383 126.938 297.058 120.846C292.426 114.056 290.403 105.535 293.862 98.4441L285.995 97.9817C282.313 97.7615 276.353 97.1889 273.342 97.0275L270.316 96.5504C266.139 100.793 260.164 104.008 256.705 109.366C253.432 114.416 253.98 120.148 258.249 125.154C258.396 127.76 260.218 136.781 260.233 138.785V139.519C260.233 139.519 264.093 143.981 275.203 144.099C284.976 144.209 293.561 139.078 293.561 139.078C293.371 136.895 293.598 134.696 294.232 132.59Z" fill="#709EF9"/>
<path opacity="0.1" d="M269.945 125.514C269.945 125.514 272.686 129.184 279.163 128.722C285.64 128.259 288.381 122.688 288.381 122.688C288.381 122.688 287.531 129.522 280.267 130.314C271.551 131.283 269.945 125.514 269.945 125.514Z" fill="black"/>
<path d="M292.588 63.9608C294.726 65.671 297.475 69.4731 297.776 80.8428C298.023 90.5095 294.981 93.0345 293.429 93.7979C291.878 94.5612 289.099 94.2749 286.095 93.9153V97.622C286.095 97.622 286.095 99.5524 283.139 101.622C280.877 103.208 276.052 104.756 273.388 102.966C271.018 101.373 273.388 96.9394 273.388 96.9394V87.3974C273.388 87.3974 270.818 89.159 267.714 86.7221C265.159 84.7109 264.155 81.1657 265.969 79.1619C266.438 78.6851 267.022 78.3249 267.67 78.1128C268.319 77.9007 269.013 77.8432 269.69 77.9454C270.368 78.0475 271.009 78.3062 271.556 78.6988C272.104 79.0913 272.543 79.6057 272.833 80.1968C276.838 79.9561 280.714 78.7513 284.096 76.6957C286.419 75.3075 288.387 73.4439 289.856 71.2408C291.325 69.0376 292.258 66.5505 292.588 63.9608Z" fill="#FFA8A7"/>
<path d="M286.072 93.952C282.915 93.6878 276.036 92.1464 274.932 89.6655C275.394 90.9125 276.238 91.9992 277.356 92.785C279.364 94.3337 286.072 95.9045 286.072 95.9045V93.952Z" fill="#F28F8F"/>
<path d="M285.972 79.0812C285.902 79.5268 285.676 79.9369 285.329 80.2446C284.983 80.5524 284.538 80.7398 284.066 80.7764C283.593 80.8129 283.122 80.6965 282.728 80.4461C282.334 80.1956 282.041 79.8258 281.896 79.3968C282.493 79.831 283.239 80.0378 283.988 79.9767C284.742 79.9194 285.448 79.6007 285.972 79.0812Z" fill="#263238"/>
<path d="M296.548 78.2151C296.449 78.6567 296.196 79.0534 295.83 79.3404C295.463 79.6275 295.005 79.7879 294.53 79.7956C294.055 79.8032 293.592 79.6577 293.215 79.3826C292.839 79.1076 292.571 78.7193 292.457 78.2812C293.03 78.7468 293.762 78.9972 294.516 78.985C295.269 78.9728 295.992 78.699 296.548 78.2151Z" fill="#263238"/>
<path d="M283.934 74.4717L281.139 75.8663C280.949 75.5027 280.915 75.0834 281.043 74.6961C281.171 74.3088 281.452 73.9838 281.826 73.7891C282.011 73.6983 282.213 73.644 282.42 73.6293C282.628 73.6146 282.836 73.6399 283.033 73.7037C283.23 73.7674 283.411 73.8683 283.566 74.0003C283.721 74.1322 283.846 74.2926 283.934 74.4717Z" fill="#263238"/>
<path d="M286.412 87.2726L289.423 88.1388C289.372 88.3309 289.281 88.5113 289.155 88.6691C289.029 88.8269 288.871 88.9588 288.69 89.0568C288.509 89.1549 288.308 89.2171 288.101 89.2397C287.894 89.2623 287.685 89.2449 287.485 89.1884C287.08 89.0633 286.742 88.7937 286.542 88.4364C286.342 88.0791 286.295 87.6619 286.412 87.2726Z" fill="#F28F8F"/>
<path d="M296.386 74.9635L293.746 73.2826C293.854 73.1157 293.997 72.9711 294.165 72.8574C294.334 72.7438 294.524 72.6634 294.726 72.621C294.927 72.5785 295.136 72.575 295.339 72.6104C295.542 72.6459 295.735 72.7197 295.908 72.8275C296.26 73.0574 296.506 73.4072 296.595 73.8047C296.684 74.2021 296.61 74.617 296.386 74.9635Z" fill="#263238"/>
<path d="M288.666 77.2535L289.6 84.5935L293.553 83.0301L288.666 77.2535Z" fill="#F28F8F"/>
<path d="M339.031 85.144C338.445 76.2039 336.893 71.3815 332.454 68.93C330.447 67.8143 328.54 67.6968 327.266 68.3501C325.799 69.0841 325.159 70.8384 326.108 73.2679C326.93 75.2998 327.512 77.4119 327.845 79.5656C327.845 79.5656 325.012 75.602 322.48 77.07C320.164 78.3986 323.73 78.861 325.568 82.8906C327.158 86.4432 328.818 86.5606 328.864 88.7626C328.864 89.3865 328.625 91.3537 328.254 93.8346C327.668 97.7174 326.811 102.87 326.255 106.1C325.946 107.949 325.73 109.168 325.73 109.168C325.73 109.168 323.591 108.544 320.982 107.7C317.663 106.599 313.857 104.867 310.514 103.384C303.975 100.499 299.559 98.2459 293.885 98.4588C293.885 98.4588 289.678 101.204 290.905 109.528C292.202 118.269 297.081 120.868 297.081 120.868C297.737 118.556 298.023 117 298.556 114.71C304.454 117.44 318.628 120.816 325.004 122.835C331.62 124.934 334.747 124.435 336.368 118.842C336.986 116.713 337.873 110.034 338.476 102.892C339.049 96.9928 339.234 91.0653 339.031 85.144Z" fill="#FFA8A7"/>
<path d="M259.971 136.568C259.971 136.568 274.956 145.222 293.553 136.084L295.506 141.897C289.454 147.6 271.057 150.639 260.226 143.416L259.971 136.568Z" fill="#455A64"/>
<path d="M274.33 58.0814C270.123 60.3789 266.039 65.5022 266.294 76.0571C265.356 76.6222 264.607 77.4281 264.131 78.3816C263.656 79.335 263.474 80.3971 263.607 81.4447C263.885 84.7403 266.572 87.4121 269.613 87.4048C272.655 87.3974 274.894 84.7183 274.624 81.4226C274.544 80.2724 274.151 79.1615 273.484 78.1989C272.817 77.2364 271.898 76.4553 270.818 75.9323C270.818 75.8516 269.745 72.321 272.771 65.9352C276.484 58.0814 288.064 56.3932 293.028 56.7676C293.028 55.5418 282.869 53.4279 274.33 58.0814Z" fill="#709EF9"/>
<path opacity="0.45" d="M274.33 58.0814C270.123 60.3789 266.039 65.5022 266.294 76.0571C265.356 76.6222 264.607 77.4281 264.131 78.3816C263.656 79.335 263.474 80.3971 263.607 81.4447C263.885 84.7403 266.572 87.4121 269.613 87.4048C272.655 87.3974 274.894 84.7183 274.624 81.4226C274.544 80.2724 274.151 79.1615 273.484 78.1989C272.817 77.2364 271.898 76.4553 270.818 75.9323C270.818 75.8516 269.745 72.321 272.771 65.9352C276.484 58.0814 288.064 56.3932 293.028 56.7676C293.028 55.5418 282.869 53.4279 274.33 58.0814Z" fill="black"/>
<path d="M274.708 81.4226C274.431 78.0683 271.698 75.3598 268.61 75.3671C268.141 75.3686 267.676 75.4353 267.228 75.5653C266.857 75.6754 265.684 76.1378 265.483 76.2186C263.329 77.0333 261.924 79.3014 262.148 81.9731C262.426 85.3202 265.151 88.036 268.239 88.0286C268.806 88.0262 269.369 87.9267 269.899 87.735C270.169 87.6396 271.242 87.2286 271.505 87.1185C273.581 86.267 274.925 84.0357 274.708 81.4226Z" fill="#709EF9"/>
<path opacity="0.3" d="M274.708 81.4226C274.431 78.0683 271.698 75.3598 268.61 75.3671C268.141 75.3686 267.676 75.4353 267.228 75.5653C266.857 75.6754 265.684 76.1378 265.483 76.2186C263.329 77.0333 261.924 79.3014 262.148 81.9731C262.426 85.3202 265.151 88.036 268.239 88.0286C268.806 88.0262 269.369 87.9267 269.899 87.735C270.169 87.6396 271.242 87.2286 271.505 87.1185C273.581 86.267 274.925 84.0357 274.708 81.4226Z" fill="black"/>
<path d="M273.327 81.9511C273.049 78.5968 270.324 75.8883 267.236 75.8956C264.148 75.903 261.832 78.6261 262.148 81.9732C262.465 85.3202 265.151 88.036 268.239 88.0287C271.327 88.0213 273.605 85.2982 273.327 81.9511Z" fill="#709EF9"/>
<path opacity="0.1" d="M273.327 81.9511C273.049 78.5968 270.324 75.8883 267.236 75.8956C264.148 75.903 261.832 78.6261 262.148 81.9732C262.465 85.3202 265.151 88.036 268.239 88.0287C271.327 88.0213 273.605 85.2982 273.327 81.9511Z" fill="black"/>
<path d="M270.378 81.9585C270.358 81.227 270.052 80.5287 269.519 80.0006C268.987 79.4724 268.266 79.1524 267.498 79.1032C266.039 79.1032 264.966 80.3877 265.097 81.9658C265.117 82.6973 265.423 83.3956 265.955 83.9237C266.488 84.4519 267.209 84.7719 267.977 84.8211C269.428 84.8211 270.509 83.5366 270.378 81.9585Z" fill="#455A64"/>
<path d="M226.883 64.7682L231.685 75.213C231.328 75.2307 230.977 75.3103 230.65 75.4479C230.084 75.6862 229.604 76.0789 229.272 76.5762C228.94 77.0736 228.771 77.6533 228.785 78.2422C228.8 78.8311 228.997 79.4027 229.353 79.8849C229.709 80.3671 230.207 80.7382 230.785 80.9513C231.362 81.1644 231.993 81.2099 232.598 81.0822C233.203 80.9545 233.754 80.6593 234.183 80.2337C234.611 79.8082 234.897 79.2715 235.005 78.6914C235.113 78.1114 235.038 77.5139 234.788 76.9746L230.488 67.6088L239.258 61.0028L243.543 70.2732C243.183 70.291 242.83 70.3706 242.501 70.5081C241.934 70.7458 241.454 71.1379 241.122 71.6347C240.789 72.1316 240.619 72.7109 240.632 73.2997C240.646 73.8885 240.843 74.4602 241.198 74.9427C241.553 75.4252 242.05 75.7969 242.627 76.0109C243.204 76.2248 243.835 76.2714 244.44 76.1448C245.045 76.0181 245.597 75.7239 246.026 75.2993C246.455 74.8746 246.742 74.3386 246.851 73.7589C246.96 73.1792 246.886 72.5818 246.639 72.0421L239.49 56.5621L226.883 64.7682Z" fill="#709EF9"/>
<path d="M317.856 135.137C318.451 134.993 319.071 134.968 319.677 135.063C320.48 135.209 321.259 135.456 321.993 135.797C322.982 136.268 324.016 136.646 325.081 136.928C325.611 137.066 326.164 137.101 326.708 137.031C327.252 136.96 327.776 136.785 328.247 136.517C327.608 136.452 326.994 136.251 326.448 135.93C325.143 135.151 324.302 133.537 323.19 132.524C321.538 131.012 319.639 130.74 317.215 130.858C316.821 132.729 316.373 134.594 315.956 136.465C315.627 137.933 315.298 139.401 314.968 140.869C314.968 141.009 314.466 142.851 314.466 142.851C313.983 142.497 313.425 142.247 312.83 142.117C312.174 141.984 311.491 142.039 310.868 142.275C310.245 142.511 309.71 142.918 309.33 143.443C308.95 143.969 308.743 144.589 308.734 145.227C308.726 145.864 308.916 146.49 309.282 147.025C309.647 147.559 310.171 147.979 310.787 148.23C311.404 148.481 312.085 148.553 312.744 148.436C313.403 148.32 314.011 148.019 314.491 147.574C314.971 147.129 315.301 146.558 315.439 145.934L317.856 135.137Z" fill="#709EF9"/>
</svg>
